HIERARCHY
ROOT Hips
{
	OFFSET -1.602300 6.242603 43.997101
	CHANNELS 6 Xposition Yposition Zposition Zrotation Xrotation Yrotation
	JOINT Chest
	{
		OFFSET -0.204900 1.598101 7.917301
		CHANNELS 6 Xposition Yposition Zposition Zrotation Xrotation Yrotation
		JOINT Chest2
		{
			OFFSET 0.000000 0.000000 3.404099
			CHANNELS 6 Xposition Yposition Zposition Zrotation Xrotation Yrotation
			JOINT Neck
			{
				OFFSET 0.000000 0.000000 7.928600
				CHANNELS 6 Xposition Yposition Zposition Zrotation Xrotation Yrotation
				JOINT Head
				{
					OFFSET 0.000000 0.000000 2.173897
					CHANNELS 6 Xposition Yposition Zposition Zrotation Xrotation Yrotation
					End Site
					{
						OFFSET 0.000000 0.000001 10.404503
					}
				}
			}
			JOINT LeftCollar
			{
				OFFSET 2.833800 -1.396299 4.843300
				CHANNELS 6 Xposition Yposition Zposition Zrotation Xrotation Yrotation
				JOINT LeftShoulder
				{
					OFFSET 4.363600 0.000000 0.000000
					CHANNELS 6 Xposition Yposition Zposition Zrotation Xrotation Yrotation
					JOINT LeftElbow
					{
						OFFSET 0.000000 -0.000001 -10.306900
						CHANNELS 6 Xposition Yposition Zposition Zrotation Xrotation Yrotation
						JOINT LeftWrist
						{
							OFFSET 0.000000 -0.000001 -12.404900
							CHANNELS 6 Xposition Yposition Zposition Zrotation Xrotation Yrotation
							End Site
							{
								OFFSET 0.000000 0.000000 -2.173901
							}
						}
					}
				}
			}
			JOINT RightCollar
			{
				OFFSET -2.354800 -1.897200 5.063099
				CHANNELS 6 Xposition Yposition Zposition Zrotation Xrotation Yrotation
				JOINT RightShoulder
				{
					OFFSET -4.375800 0.000000 0.000000
					CHANNELS 6 Xposition Yposition Zposition Zrotation Xrotation Yrotation
					JOINT RightElbow
					{
						OFFSET 0.000000 -0.000001 -10.005001
						CHANNELS 6 Xposition Yposition Zposition Zrotation Xrotation Yrotation
						JOINT RightWrist
						{
							OFFSET 0.000000 -0.000001 -13.174900
							CHANNELS 6 Xposition Yposition Zposition Zrotation Xrotation Yrotation
							End Site
							{
								OFFSET 0.000000 0.000000 -2.173901
							}
						}
					}
				}
			}
		}
	}
	JOINT LeftHip
	{
		OFFSET 2.240600 0.386800 -2.614101
		CHANNELS 6 Xposition Yposition Zposition Zrotation Xrotation Yrotation
		JOINT LeftKnee
		{
			OFFSET 0.000000 -0.000001 -18.592899
			CHANNELS 6 Xposition Yposition Zposition Zrotation Xrotation Yrotation
			JOINT LeftAnkle
			{
				OFFSET 0.000000 -0.000001 -18.765800
				CHANNELS 6 Xposition Yposition Zposition Zrotation Xrotation Yrotation
				End Site
				{
					OFFSET 0.000000 -8.655000 0.000000
				}
			}
		}
	}
	JOINT RightHip
	{
		OFFSET -2.014900 -0.220900 -2.615898
		CHANNELS 6 Xposition Yposition Zposition Zrotation Xrotation Yrotation
		JOINT RightKnee
		{
			OFFSET 0.000000 -0.000001 -18.633900
			CHANNELS 6 Xposition Yposition Zposition Zrotation Xrotation Yrotation
			JOINT RightAnkle
			{
				OFFSET 0.000000 -0.000001 -18.285101
				CHANNELS 6 Xposition Yposition Zposition Zrotation Xrotation Yrotation
				End Site
				{
					OFFSET 0.000000 -7.524500 0.000000
				}
			}
		}
	}
}
MOTION
Frames: 8
Frame Time: 0.041667
-5.387299 26.671701 7.857609 3.923499 -5.672538 6.389392 -0.204900 1.598101 7.917309 -2.950416 11.893547 -3.493486 -0.000001 0.000001 3.404106 9.638676 -16.896836 -0.742768 -0.000000 -0.000005 7.928601 -44.264284 -0.994978 16.341064 0.000001 -0.000000 2.173907 -6.519866 -2.745713 -6.396542 2.833798 -1.396301 4.843304 21.986376 0.082487 -13.537409 4.363588 0.000002 -0.000002 -61.570337 -40.761363 -128.366603 -0.000000 0.000006 -10.306898 608.785798 -149.749439 561.565695 -0.000003 0.000001 -12.404896 -522.052177 201.971125 -198.197091 -2.354805 -1.897203 5.063105 18.286261 11.377353 -29.428294 -4.375792 -0.000000 0.000000 20.578696 -29.075306 116.477443 0.000000 0.000000 -10.004992 -289.412273 -174.329213 -195.208391 0.000001 -0.000001 -13.174894 -179.403770 -163.049005 178.246695 2.240598 0.386801 -2.614104 135.907145 -42.222696 103.599435 -0.000001 0.000000 -18.592894 -110.835631 39.004659 132.310586 -0.000000 0.000001 -18.765797 11.159476 35.454901 -7.695637 -2.014895 -0.220898 -2.615897 -117.449638 -7.040999 -91.163689 -0.000002 0.000002 -18.633886 186.723520 25.389314 -177.995987 -0.000006 -0.000004 -18.285084 -10.896518 34.362607 -209.455332
-5.385600 26.683203 7.842213 3.923133 -5.793279 6.381395 -0.204900 1.598099 7.917307 -2.916952 12.276218 -3.431801 -0.000001 0.000002 3.404101 9.534243 -16.943935 -0.766077 -0.000000 -0.000002 7.928601 -44.280612 -1.010238 16.206722 0.000001 -0.000003 2.173907 -6.464766 -2.733790 -6.399299 2.833799 -1.396300 4.843302 21.965337 0.080377 -13.446920 4.363590 0.000005 -0.000004 -61.536460 -40.551127 -128.282263 0.000000 0.000004 -10.306900 609.030811 -149.431302 561.782622 -0.000006 0.000003 -12.404890 -522.683887 202.385158 -198.586726 -2.354801 -1.897202 5.063101 18.271635 11.362213 -29.493833 -4.375789 0.000003 -0.000010 20.135864 -28.229950 116.153610 0.000007 0.000003 -10.004994 -290.405245 -174.278369 -195.347645 -0.000001 0.000002 -13.174892 -179.456117 -162.942509 177.614930 2.240600 0.386800 -2.614101 135.832751 -42.286442 103.499701 -0.000000 -0.000001 -18.592894 -110.735583 38.968534 132.250877 0.000001 0.000001 -18.765799 11.318930 35.500362 -7.873944 -2.014897 -0.220898 -2.615899 -117.402168 -7.236399 -91.086016 -0.000001 0.000006 -18.633881 186.667868 25.419311 -178.075353 -0.000006 -0.000005 -18.285086 -10.875185 34.390761 -209.484852
-5.384698 26.695705 7.824104 3.904037 -5.947434 6.373406 -0.204900 1.598105 7.917306 -2.860879 12.680048 -3.382354 -0.000001 0.000000 3.404101 9.439633 -16.984104 -0.781999 0.000000 0.000000 7.928598 -44.316958 -1.025633 16.099931 -0.000000 -0.000000 2.173909 -6.404718 -2.704353 -6.427945 2.833798 -1.396302 4.843300 21.857710 0.129744 -13.411445 4.363595 0.000007 -0.000007 -61.370971 -40.371332 -128.146411 -0.000002 0.000006 -10.306894 609.357567 -149.073277 562.020094 -0.000004 0.000001 -12.404898 -523.340186 202.730437 -198.992534 -2.354804 -1.897204 5.063097 18.250978 11.346183 -29.466092 -4.375799 0.000005 -0.000011 19.615822 -27.398013 115.701943 -0.000001 0.000003 -10.004991 -291.375023 -174.222689 -195.507704 -0.000001 0.000003 -13.174892 -179.535702 -162.839073 177.009011 2.240598 0.386807 -2.614104 135.767919 -42.371727 103.386142 -0.000001 -0.000003 -18.592894 -110.664473 38.951886 132.218187 0.000000 0.000000 -18.765800 11.467143 35.541897 -8.083408 -2.014896 -0.220894 -2.615897 -117.330465 -7.433484 -90.984964 -0.000002 0.000002 -18.633883 186.622474 25.452601 -178.161687 -0.000006 -0.000007 -18.285086 -10.858657 34.425260 -209.510247
-5.385099 26.709103 7.803909 3.871685 -6.080325 6.362810 -0.204900 1.598101 7.917304 -2.795959 13.033954 -3.343260 -0.000002 0.000004 3.404100 9.347326 -16.983224 -0.794206 -0.000001 -0.000002 7.928602 -44.382634 -1.038367 16.041051 -0.000000 0.000002 2.173898 -6.353235 -2.673436 -6.516827 2.833797 -1.396302 4.843303 21.640814 0.215616 -13.454817 4.363589 0.000003 -0.000004 -61.180053 -40.396952 -128.070063 -0.000000 0.000004 -10.306898 609.526300 -148.725074 562.271336 -0.000003 0.000003 -12.404895 -523.993043 203.118406 -199.378181 -2.354804 -1.897205 5.063103 18.279219 11.319138 -29.449901 -4.375791 0.000002 -0.000003 19.252705 -26.873603 115.379886 0.000005 0.000003 -10.004993 -291.989112 -174.183143 -195.631398 -0.000001 0.000001 -13.174895 -179.617105 -162.718397 176.408814 2.240600 0.386806 -2.614104 135.731951 -42.445688 103.302889 -0.000000 0.000000 -18.592894 -110.626211 38.973613 132.218761 0.000000 0.000001 -18.765799 11.583768 35.586734 -8.324142 -2.014896 -0.220897 -2.615900 -117.252054 -7.608521 -90.911942 -0.000002 0.000004 -18.633884 186.585687 25.488130 -178.251203 -0.000006 -0.000008 -18.285084 -10.845913 34.462737 -209.530191
-5.386399 26.723309 7.782108 3.843798 -6.211224 6.357616 -0.204901 1.598103 7.917312 -2.733920 13.384864 -3.318198 -0.000001 -0.000000 3.404101 9.258003 -16.979874 -0.806275 0.000001 -0.000000 7.928605 -44.478352 -1.062625 16.018127 0.000001 -0.000001 2.173907 -6.280861 -2.648924 -6.605909 2.833798 -1.396300 4.843307 21.605775 0.247911 -14.420455 4.363597 0.000009 -0.000011 -60.750817 -41.222913 -127.361021 0.000002 0.000001 -10.306906 609.758527 -148.378319 562.575962 -0.000005 0.000002 -12.404898 -524.681690 203.543203 -199.798661 -2.354805 -1.897203 5.063101 18.302779 11.299663 -29.377931 -4.375792 0.000001 -0.000006 18.898000 -26.433409 115.002217 0.000006 0.000001 -10.004996 -292.639892 -174.173539 -195.777892 0.000001 0.000004 -13.174896 -179.627118 -162.576780 175.872877 2.240599 0.386807 -2.614097 135.624758 -42.739093 103.192950 -0.000001 -0.000001 -18.592894 -110.390965 39.104097 132.169338 -0.000000 0.000001 -18.765797 11.636296 35.632643 -8.600982 -2.014897 -0.220895 -2.615895 -117.135654 -7.969093 -90.826517 0.000000 0.000004 -18.633881 186.461419 25.564186 -178.389747 -0.000006 -0.000007 -18.285086 -10.771739 34.521053 -209.613752
-5.388500 26.737505 7.760204 3.816644 -6.292742 6.363612 -0.204901 1.598100 7.917308 -2.676718 13.641216 -3.333807 -0.000002 0.000000 3.404102 9.179541 -16.954310 -0.814368 0.000001 0.000001 7.928600 -44.539971 -1.058357 16.018583 0.000000 -0.000002 2.173908 -6.255410 -2.627690 -6.687052 2.833796 -1.396299 4.843305 21.255678 0.488231 -14.236015 4.363591 0.000004 -0.000009 -60.539833 -41.123005 -127.469553 0.000000 0.000004 -10.306906 609.921249 -147.972087 562.891790 -0.000005 -0.000000 -12.404898 -525.439951 203.968792 -200.323178 -2.354804 -1.897199 5.063101 18.431370 11.357391 -29.345621 -4.375790 0.000003 -0.000007 18.690999 -26.445594 114.750730 0.000003 0.000000 -10.004994 -292.872064 -174.173485 -195.932555 -0.000003 0.000007 -13.174892 -179.643619 -162.388731 175.301791 2.240598 0.386806 -2.614103 135.621356 -42.852983 103.182281 -0.000001 0.000002 -18.592894 -110.327315 39.182914 132.193011 -0.000001 0.000001 -18.765800 11.698689 35.680574 -8.840129 -2.014899 -0.220892 -2.615897 -117.094318 -8.006810 -90.813580 -0.000002 0.000004 -18.633886 186.467935 25.584217 -178.454606 -0.000006 -0.000005 -18.285084 -10.785676 34.549122 -209.596130
-5.390599 26.750404 7.739807 3.794216 -6.382465 6.370907 -0.204901 1.598099 7.917305 -2.621880 13.912572 -3.354555 -0.000001 0.000001 3.404100 9.112858 -16.941873 -0.821695 0.000000 0.000004 7.928600 -44.598834 -1.048467 16.034685 -0.000000 0.000001 2.173896 -6.221046 -2.598513 -6.769392 2.833798 -1.396298 4.843304 20.971391 0.751129 -14.043680 4.363589 0.000005 -0.000006 -60.571327 -41.125040 -127.751134 -0.000006 0.000003 -10.306901 609.970044 -147.683675 563.234666 0.000003 -0.000002 -12.404900 -526.405794 204.488514 -200.994845 -2.354803 -1.897198 5.063103 18.565233 11.451388 -29.353882 -4.375793 0.000003 -0.000004 18.556458 -26.598022 114.551479 0.000007 0.000002 -10.004993 -293.002930 -174.188047 -196.110249 -0.000001 -0.000002 -13.174900 -179.642663 -162.188852 174.773285 2.240598 0.386802 -2.614104 135.612177 -42.918556 103.156730 0.000001 0.000001 -18.592894 -110.305117 39.232309 132.211193 0.000000 0.000001 -18.765799 11.768960 35.724700 -9.037650 -2.014895 -0.220897 -2.615897 -117.046657 -8.091414 -90.789586 -0.000001 0.000002 -18.633886 186.449807 25.610433 -178.522157 -0.000006 -0.000003 -18.285084 -10.781904 34.577276 -209.592974
-5.392799 26.763103 7.720509 3.781074 -6.463906 6.364360 -0.204901 1.598098 7.917313 -2.582443 14.174553 -3.347446 -0.000000 -0.000000 3.404098 9.042604 -16.935457 -0.831136 0.000000 0.000002 7.928601 -44.618095 -1.009399 16.019369 0.000002 -0.000001 2.173898 -6.211582 -2.571206 -6.859698 2.833798 -1.396298 4.843299 20.709303 1.072590 -13.844990 4.363599 0.000005 -0.000007 -60.724015 -41.195173 -128.166697 -0.000003 0.000005 -10.306898 609.955892 -147.410481 563.615353 -0.000004 0.000003 -12.404897 -527.558074 204.963062 -201.637634 -2.354802 -1.897199 5.063098 18.736235 11.578695 -29.519808 -4.375792 0.000002 -0.000009 18.581864 -26.874484 114.569176 0.000003 0.000003 -10.004994 -292.988150 -174.220777 -196.246716 -0.000003 0.000002 -13.174891 -179.660927 -161.945985 174.205327 2.240601 0.386803 -2.614098 135.590620 -42.901409 103.118105 0.000000 0.000001 -18.592896 -110.324132 39.238293 132.214526 0.000000 0.000000 -18.765799 11.856152 35.760036 -9.168062 -2.014898 -0.220896 -2.615894 -116.994406 -8.247023 -90.777128 -0.000001 -0.000002 -18.633883 186.399619 25.646170 -178.599038 -0.000005 -0.000006 -18.285084 -10.754945 34.603320 -209.610692
